HIERARCHY
ROOT Hips
{
	OFFSET 0.000000 71.427986 0.000000
	CHANNELS 6 Xposition Yposition Zposition Xrotation Yrotation Zrotation
	JOINT Pelvis
	{
		OFFSET 0.000000 0.000000 0.000000
		CHANNELS 3 Xrotation Yrotation Zrotation
		JOINT LeftUpLeg
		{
			OFFSET 6.797100 -2.508499 -1.318700
			CHANNELS 3 Xrotation Yrotation Zrotation
			JOINT LeftLeg
			{
				OFFSET 0.069008 -29.241863 0.690200
				CHANNELS 3 Xrotation Yrotation Zrotation
				JOINT LeftFoot
				{
					OFFSET -0.069008 -29.568123 -0.266800
					CHANNELS 3 Xrotation Yrotation Zrotation
					JOINT LeftToeBase
					{
						OFFSET 3.145500 -8.631000 16.059900
						CHANNELS 3 Xrotation Yrotation Zrotation
						End Site
						{
							OFFSET 0.000000 18.501587 0.000000
						}
					}
				}
			}
			JOINT Left_ShortSleeve
			{
				OFFSET 0.265923 -10.480953 1.153800
				CHANNELS 3 Xrotation Yrotation Zrotation
				End Site
				{
					OFFSET 1.725763 19.823879 0.000000
				}
			}
		}
		JOINT RightUpLeg
		{
			OFFSET -6.797100 -2.508499 -1.318700
			CHANNELS 3 Xrotation Yrotation Zrotation
			JOINT RightLeg
			{
				OFFSET -0.082453 -29.241932 0.688000
				CHANNELS 3 Xrotation Yrotation Zrotation
				JOINT RightFoot
				{
					OFFSET 0.082453 -29.568058 -0.264600
					CHANNELS 3 Xrotation Yrotation Zrotation
					JOINT RightToeBase
					{
						OFFSET -3.115300 -8.682800 16.113400
						CHANNELS 3 Xrotation Yrotation Zrotation
						End Site
						{
							OFFSET 0.000000 18.567114 0.000000
						}
					}
				}
			}
			JOINT Right_ShortSleeve
			{
				OFFSET -0.265923 -10.480953 1.153800
				CHANNELS 3 Xrotation Yrotation Zrotation
				End Site
				{
					OFFSET -1.725766 19.823910 0.000000
				}
			}
		}
	}
	JOINT Spine
	{
		OFFSET 0.000000 13.368103 0.470500
		CHANNELS 3 Xrotation Yrotation Zrotation
		JOINT Spine1
		{
			OFFSET 0.147000 13.837402 0.538800
			CHANNELS 3 Xrotation Yrotation Zrotation
			JOINT Spine2
			{
				OFFSET 0.168000 16.242897 -1.435500
				CHANNELS 3 Xrotation Yrotation Zrotation
				JOINT Neck
				{
					OFFSET 0.217200 18.631500 -1.679100
					CHANNELS 3 Xrotation Yrotation Zrotation
					JOINT Head
					{
						OFFSET 0.000000 6.599396 1.385900
						CHANNELS 3 Xrotation Yrotation Zrotation
						JOINT Hat
						{
							OFFSET -0.532200 27.220596 -10.096100
							CHANNELS 3 Xrotation Yrotation Zrotation
							End Site
							{
								OFFSET 0.000000 22.029861 0.000000
							}
						}
						JOINT HairD
						{
							OFFSET -10.777400 17.437393 -1.325900
							CHANNELS 3 Xrotation Yrotation Zrotation
							JOINT HairD1
							{
								OFFSET -3.290299 -11.051193 1.062200
								CHANNELS 3 Xrotation Yrotation Zrotation
								End Site
								{
									OFFSET 0.000000 11.579437 0.000000
								}
							}
						}
						JOINT HairB
						{
							OFFSET -10.777400 17.437393 1.467900
							CHANNELS 3 Xrotation Yrotation Zrotation
							JOINT HairB1
							{
								OFFSET -1.561200 -12.956299 3.590200
								CHANNELS 3 Xrotation Yrotation Zrotation
								End Site
								{
									OFFSET 0.000000 13.534866 0.000000
								}
							}
						}
						JOINT HairA
						{
							OFFSET 9.713100 17.437393 1.467900
							CHANNELS 3 Xrotation Yrotation Zrotation
							JOINT HairA1
							{
								OFFSET 1.561200 -12.956299 3.590200
								CHANNELS 3 Xrotation Yrotation Zrotation
								End Site
								{
									OFFSET 0.000000 13.534866 0.000000
								}
							}
						}
						JOINT HairC
						{
							OFFSET 9.713100 17.437393 -1.325900
							CHANNELS 3 Xrotation Yrotation Zrotation
							JOINT HairC1
							{
								OFFSET 3.290300 -11.051193 1.062200
								CHANNELS 3 Xrotation Yrotation Zrotation
								End Site
								{
									OFFSET 0.000000 11.579437 0.000000
								}
							}
						}
					}
				}
				JOINT LeftShoulder
				{
					OFFSET 5.101800 15.108002 -2.763700
					CHANNELS 3 Xrotation Yrotation Zrotation
					JOINT LeftArm
					{
						OFFSET 9.825497 2.506317 -1.597400
						CHANNELS 3 Xrotation Yrotation Zrotation
						JOINT LeftForeArm
						{
							OFFSET 21.966244 0.000000 0.000000
							CHANNELS 3 Xrotation Yrotation Zrotation
							JOINT LeftHand
							{
								OFFSET 33.879036 0.000000 0.000000
								CHANNELS 3 Xrotation Yrotation Zrotation
								JOINT LeftHandThumb1
								{
									OFFSET 6.715286 -2.359680 3.363841
									CHANNELS 3 Xrotation Yrotation Zrotation
									JOINT LeftHandThumb2
									{
										OFFSET 2.507072 -1.447464 1.447461
										CHANNELS 3 Xrotation Yrotation Zrotation
										JOINT LeftHandThumb3
										{
											OFFSET 2.898338 -1.673355 1.673357
											CHANNELS 3 Xrotation Yrotation Zrotation
											End Site
											{
												OFFSET -0.295959 3.727692 -0.131651
											}
										}
									}
								}
								JOINT LeftHandIndex1
								{
									OFFSET 14.190811 -0.254547 3.840278
									CHANNELS 3 Xrotation Yrotation Zrotation
									JOINT LeftHandIndex2
									{
										OFFSET 3.551727 0.000000 -0.000000
										CHANNELS 3 Xrotation Yrotation Zrotation
										JOINT LeftHandIndex3
										{
											OFFSET 2.894196 0.000000 0.000000
											CHANNELS 3 Xrotation Yrotation Zrotation
											End Site
											{
												OFFSET -1.000603 2.690872 0.366626
											}
										}
									}
								}
								JOINT LeftHandMiddle1
								{
									OFFSET 13.776489 0.000000 0.000000
									CHANNELS 3 Xrotation Yrotation Zrotation
									JOINT LeftHandMiddle2
									{
										OFFSET 3.438232 0.000000 0.000000
										CHANNELS 3 Xrotation Yrotation Zrotation
										JOINT LeftHandMiddle3
										{
											OFFSET 3.691551 0.000000 0.000000
											CHANNELS 3 Xrotation Yrotation Zrotation
											End Site
											{
												OFFSET -1.082298 3.499527 0.457670
											}
										}
									}
								}
								JOINT LeftHandRing1
								{
									OFFSET 13.966164 -0.268127 -3.067488
									CHANNELS 3 Xrotation Yrotation Zrotation
									JOINT LeftHandRing2
									{
										OFFSET 3.162567 0.000000 0.000000
										CHANNELS 3 Xrotation Yrotation Zrotation
										JOINT LeftHandRing3
										{
											OFFSET 3.324348 0.000000 0.000000
											CHANNELS 3 Xrotation Yrotation Zrotation
											End Site
											{
												OFFSET -0.861900 3.184998 0.405154
											}
										}
									}
								}
								JOINT LeftHandPinky1
								{
									OFFSET 13.131393 -0.168503 -5.746925
									CHANNELS 3 Xrotation Yrotation Zrotation
									JOINT LeftHandPinky2
									{
										OFFSET 2.849182 0.000000 0.000000
										CHANNELS 3 Xrotation Yrotation Zrotation
										JOINT LeftHandPinky3
										{
											OFFSET 2.805038 0.000000 0.000000
											CHANNELS 3 Xrotation Yrotation Zrotation
											End Site
											{
												OFFSET -0.882500 2.642609 0.325652
											}
										}
									}
								}
							}
							JOINT Left_Sleeve
							{
								OFFSET 6.592125 -0.646545 0.805568
								CHANNELS 3 Xrotation Yrotation Zrotation
								End Site
								{
									OFFSET -0.000179 20.275787 -0.000000
								}
							}
						}
					}
				}
				JOINT RightShoulder
				{
					OFFSET -5.731700 15.108002 -2.763700
					CHANNELS 3 Xrotation Yrotation Zrotation
					JOINT RightArm
					{
						OFFSET -9.825497 2.506317 -1.597400
						CHANNELS 3 Xrotation Yrotation Zrotation
						JOINT RightForeArm
						{
							OFFSET -21.966242 0.000000 0.000000
							CHANNELS 3 Xrotation Yrotation Zrotation
							JOINT RightHand
							{
								OFFSET -33.879032 0.000000 0.000000
								CHANNELS 3 Xrotation Yrotation Zrotation
								JOINT RightHandThumb1
								{
									OFFSET -6.715286 -2.359680 3.363841
									CHANNELS 3 Xrotation Yrotation Zrotation
									JOINT RightHandThumb2
									{
										OFFSET -2.507072 -1.447464 1.447461
										CHANNELS 3 Xrotation Yrotation Zrotation
										JOINT RightHandThumb3
										{
											OFFSET -2.898338 -1.673355 1.673357
											CHANNELS 3 Xrotation Yrotation Zrotation
											End Site
											{
												OFFSET 0.295959 3.727692 -0.131651
											}
										}
									}
								}
								JOINT RightHandIndex1
								{
									OFFSET -14.190811 -0.254547 3.840278
									CHANNELS 3 Xrotation Yrotation Zrotation
									JOINT RightHandIndex2
									{
										OFFSET -3.551727 0.000000 -0.000000
										CHANNELS 3 Xrotation Yrotation Zrotation
										JOINT RightHandIndex3
										{
											OFFSET -2.894196 0.000000 0.000000
											CHANNELS 3 Xrotation Yrotation Zrotation
											End Site
											{
												OFFSET 1.000603 2.690872 0.366626
											}
										}
									}
								}
								JOINT RightHandMiddle1
								{
									OFFSET -13.776489 0.000000 0.000000
									CHANNELS 3 Xrotation Yrotation Zrotation
									JOINT RightHandMiddle2
									{
										OFFSET -3.438232 0.000000 0.000000
										CHANNELS 3 Xrotation Yrotation Zrotation
										JOINT RightHandMiddle3
										{
											OFFSET -3.691551 0.000000 0.000000
											CHANNELS 3 Xrotation Yrotation Zrotation
											End Site
											{
												OFFSET 1.082298 3.499527 0.457670
											}
										}
									}
								}
								JOINT RightHandRing1
								{
									OFFSET -13.966164 -0.268127 -3.067488
									CHANNELS 3 Xrotation Yrotation Zrotation
									JOINT RightHandRing2
									{
										OFFSET -3.162567 0.000000 0.000000
										CHANNELS 3 Xrotation Yrotation Zrotation
										JOINT RightHandRing3
										{
											OFFSET -3.324348 0.000000 0.000000
											CHANNELS 3 Xrotation Yrotation Zrotation
											End Site
											{
												OFFSET 0.861900 3.184998 0.405154
											}
										}
									}
								}
								JOINT RightHandPinky1
								{
									OFFSET -13.131393 -0.168503 -5.746925
									CHANNELS 3 Xrotation Yrotation Zrotation
									JOINT RightHandPinky2
									{
										OFFSET -2.849182 0.000000 0.000000
										CHANNELS 3 Xrotation Yrotation Zrotation
										JOINT RightHandPinky3
										{
											OFFSET -2.805038 0.000000 0.000000
											CHANNELS 3 Xrotation Yrotation Zrotation
											End Site
											{
												OFFSET 0.882500 2.642609 0.325652
											}
										}
									}
								}
							}
							JOINT Right_Sleeve
							{
								OFFSET -6.592125 -0.646545 0.805568
								CHANNELS 3 Xrotation Yrotation Zrotation
								End Site
								{
									OFFSET 0.000179 20.275787 -0.000000
								}
							}
						}
					}
				}
				JOINT Bind_Right_JacketString
				{
					OFFSET -3.534800 11.969597 7.200700
					CHANNELS 3 Xrotation Yrotation Zrotation
					JOINT Bind_Right_JacketString1
					{
						OFFSET -0.319900 -6.102600 2.794100
						CHANNELS 3 Xrotation Yrotation Zrotation
						End Site
						{
							OFFSET 0.000000 6.719452 0.000000
						}
					}
				}
				JOINT Bind_Left_JacketString
				{
					OFFSET 2.904800 11.969597 7.200700
					CHANNELS 3 Xrotation Yrotation Zrotation
					JOINT Bind_Left_JacketString1
					{
						OFFSET 0.364800 -5.904503 3.186800
						CHANNELS 3 Xrotation Yrotation Zrotation
						End Site
						{
							OFFSET 0.000000 6.719513 0.000000
						}
					}
				}
				JOINT HairE
				{
					OFFSET 5.915200 17.612701 -11.592200
					CHANNELS 3 Xrotation Yrotation Zrotation
					JOINT HairE1
					{
						OFFSET 0.289200 -7.171898 -1.284500
						CHANNELS 3 Xrotation Yrotation Zrotation
						End Site
						{
							OFFSET 0.000000 7.291756 0.000000
						}
					}
				}
				JOINT HairF
				{
					OFFSET -0.864800 17.612701 -11.592200
					CHANNELS 3 Xrotation Yrotation Zrotation
					JOINT HairF1
					{
						OFFSET 0.000000 -14.087097 -2.127501
						CHANNELS 3 Xrotation Yrotation Zrotation
						End Site
						{
							OFFSET 0.000000 14.246841 0.000000
						}
					}
				}
				JOINT HairG
				{
					OFFSET -8.087700 17.612701 -11.592200
					CHANNELS 3 Xrotation Yrotation Zrotation
					JOINT HairG1
					{
						OFFSET -0.293600 -6.081398 -0.910100
						CHANNELS 3 Xrotation Yrotation Zrotation
						End Site
						{
							OFFSET 0.000000 6.156120 0.000000
						}
					}
				}
			}
		}
	}
	JOINT Pouch
	{
		OFFSET 0.000000 4.394501 10.847300
		CHANNELS 3 Xrotation Yrotation Zrotation
		End Site
		{
			OFFSET 0.000000 21.880577 0.000000
		}
	}
	JOINT Bag
	{
		OFFSET -13.229000 4.813004 -0.593300
		CHANNELS 3 Xrotation Yrotation Zrotation
		End Site
		{
			OFFSET 0.000000 21.880577 0.000000
		}
	}
	JOINT OccupyGuyFacialAnim_Joint
	{
		OFFSET 1.000000 -70.206398 -1.655000
		CHANNELS 3 Xrotation Yrotation Zrotation
		End Site
		{
			OFFSET 0.000000 21.880577 0.000000
		}
	}
}
MOTION
Frames: 4
Frame Time: 0.016667
-0.252374 64.897667 0.869568 -1.735265 -17.051950 -1.943899 -0.000000 0.000001 0.000000 -34.264921 18.627487 13.983793 49.887982 0.556377 8.291532 -16.650056 1.309268 -7.576068 0.000000 0.000000 -0.000000 -0.000001 -0.000000 -0.000000 -29.196713 -23.736320 -13.234119 48.688375 -2.626057 -10.180267 -19.891898 -2.429377 11.491065 -0.000000 0.000000 0.000000 0.000003 -0.000001 -0.000001 3.882326 2.398832 -0.365941 2.929113 2.056184 -0.138334 2.894091 2.112998 -0.161224 1.137082 0.245399 5.249918 -1.998751 7.430614 1.905182 -0.000000 -0.000000 0.000000 -0.000000 -0.000000 0.000000 -0.000000 -0.000000 0.000000 -0.000000 -0.000000 -0.000000 -0.000000 0.000000 -0.000000 -0.000000 -0.000000 -0.000000 -0.000000 0.000000 -0.000000 -0.000000 -0.000000 0.000000 -0.000000 -0.000000 0.000000 1.375471 -4.867613 21.431194 -66.234277 -43.614856 -65.822028 -0.000004 -37.698375 0.000001 -66.348587 -13.253387 -9.215231 22.601031 -28.107304 -14.151474 29.406833 28.726492 -29.411768 0.000000 -0.000000 -0.000001 0.797700 3.221925 -27.804713 0.799553 3.225530 -27.838613 0.000002 0.000001 -0.000002 0.796781 3.220233 -27.788688 0.800487 3.227229 -27.854649 0.000002 -0.000000 0.000001 0.797686 3.221907 -27.804715 0.799565 3.225544 -27.838615 0.000001 0.000000 -0.000001 2.684968 6.814130 -27.459471 0.809025 -0.835552 -28.291866 -0.000001 -0.000001 -0.000001 -0.000002 -0.000001 -0.000001 0.445410 -0.777910 -3.588726 -96.770728 65.301144 91.341807 0.000003 28.227430 -0.000001 -31.535694 -1.128094 -3.934960 40.606591 -3.110608 26.124234 -37.849493 -44.265032 -46.874967 -0.000001 -0.000003 -0.000001 3.635331 -6.111003 61.464456 7.728601 -6.904449 96.464456 -0.000003 -0.000000 0.000004 3.635328 -6.110999 61.464456 7.728620 -6.904462 96.464428 0.000001 0.000001 0.000003 3.635320 -6.110959 61.464449 7.728627 -6.904478 96.464442 0.000001 -0.000000 0.000001 3.635340 -6.110999 61.464456 7.728614 -6.904470 96.464428 0.000006 0.000002 0.000001 0.000001 0.000001 0.000000 -0.000001 0.000000 0.000000 -0.000001 0.000000 0.000000 -0.000001 0.000000 -0.000000 -0.000001 0.000000 -0.000000 -0.000001 0.000000 0.000000 -0.000001 0.000000 0.000000 -0.000001 0.000000 -0.000000 -0.000001 0.000000 -0.000000 -0.000001 0.000000 0.000000 -0.000001 0.000000 0.000000 -0.000000 0.000001 0.000000 -0.000000 0.000001 0.000000 -0.000000 0.000001 0.000000 
-0.247687 64.903366 0.863820 -1.679564 -17.012618 -1.964196 0.000000 0.000001 -0.000000 -34.347601 18.679712 13.966920 49.862276 0.508941 8.417095 -16.624598 1.313359 -7.595283 -0.000000 -0.000000 0.000000 0.000001 -0.000001 -0.000000 -29.128329 -23.556315 -13.064791 48.592729 -2.870667 -10.179589 -19.838302 -2.450222 11.599011 0.000000 0.000000 0.000000 0.000001 -0.000004 -0.000002 3.846757 2.379735 -0.379439 2.899332 2.043577 -0.147449 2.864488 2.099782 -0.170384 1.085836 0.256952 5.236185 -1.804759 7.498499 2.008297 -0.000000 0.000000 0.000001 -0.000000 0.000000 0.000001 -0.000000 0.000000 0.000001 -0.000000 0.000000 0.000001 -0.000000 -0.000000 0.000001 -0.000000 0.000000 0.000001 -0.000000 -0.000000 0.000001 -0.000000 0.000000 0.000001 -0.000000 0.000000 0.000001 1.287688 -4.591924 21.372328 -66.225958 -43.832777 -66.089607 0.000003 -37.650093 -0.000008 -66.346292 -13.265071 -9.206509 22.601002 -28.107302 -14.151465 29.406840 28.726498 -29.411768 0.000001 -0.000002 -0.000001 0.797648 3.221954 -27.804723 0.799600 3.225515 -27.838613 0.000002 0.000000 0.000002 0.796757 3.220237 -27.788688 0.800502 3.227224 -27.854645 -0.000000 -0.000000 0.000001 0.797650 3.221934 -27.804718 0.799574 3.225534 -27.838618 -0.000002 0.000001 -0.000001 2.684952 6.814136 -27.459480 0.809067 -0.835572 -28.291861 -0.000002 0.000000 -0.000001 -0.000000 0.000004 0.000002 0.432491 -0.830611 -3.627957 -97.091720 65.466175 91.848395 0.000002 28.156123 0.000002 -31.844630 -1.022910 -3.997972 40.606585 -3.110609 26.124234 -37.849486 -44.265029 -46.874967 0.000003 -0.000001 0.000001 3.635325 -6.111002 61.464456 7.728600 -6.904446 96.464456 0.000000 -0.000000 0.000000 3.635323 -6.111002 61.464456 7.728621 -6.904465 96.464428 0.000003 0.000000 -0.000002 3.635316 -6.110959 61.464449 7.728629 -6.904483 96.464449 0.000002 -0.000001 -0.000003 3.635330 -6.110998 61.464463 7.728618 -6.904475 96.464428 -0.000004 0.000003 0.000003 -0.000001 -0.000003 0.000000 -0.000000 -0.000000 0.000000 0.000001 -0.000000 -0.000000 -0.000000 -0.000000 -0.000000 -0.000000 -0.000000 -0.000000 -0.000000 -0.000000 0.000000 0.000001 -0.000000 0.000000 -0.000000 -0.000000 -0.000000 -0.000000 -0.000000 -0.000000 -0.000000 -0.000000 0.000000 0.000001 -0.000000 0.000000 0.000000 0.000001 -0.000000 0.000000 0.000001 -0.000000 0.000000 0.000001 -0.000000 
-0.243014 64.908569 0.855069 -1.625994 -16.969291 -1.979371 0.000000 -0.000000 0.000000 -34.426619 18.731819 13.936600 49.831865 0.465156 8.551837 -16.593198 1.319027 -7.619307 0.000000 -0.000000 0.000000 0.000002 0.000000 -0.000000 -29.065156 -23.369702 -12.899041 48.501330 -3.133373 -10.178666 -19.783658 -2.470102 11.709907 0.000000 0.000000 -0.000000 -0.000000 -0.000003 -0.000001 3.800377 2.351631 -0.399663 2.860568 2.025401 -0.161202 2.825895 2.080955 -0.184224 1.012364 0.275950 5.218361 -1.628340 7.575837 2.118158 0.000001 0.000000 -0.000000 0.000001 0.000000 -0.000000 0.000001 0.000000 -0.000001 0.000001 0.000000 -0.000000 0.000001 -0.000000 -0.000000 0.000001 0.000000 -0.000000 0.000001 -0.000000 -0.000000 0.000001 0.000000 -0.000000 0.000001 0.000000 -0.000000 1.196436 -4.307694 21.316489 -66.220310 -44.104700 -66.348758 -0.000004 -37.562349 -0.000001 -66.391351 -13.293682 -9.237446 22.601002 -28.107294 -14.151479 29.406850 28.726485 -29.411785 0.000002 0.000001 -0.000001 0.797656 3.221945 -27.804737 0.799615 3.225512 -27.838615 0.000001 0.000000 -0.000002 0.796759 3.220233 -27.788701 0.800483 3.227237 -27.854649 0.000002 -0.000000 0.000002 0.797665 3.221917 -27.804725 0.799587 3.225530 -27.838610 -0.000000 -0.000001 0.000001 2.684929 6.814141 -27.459476 0.809050 -0.835550 -28.291866 -0.000000 -0.000000 0.000003 -0.000002 0.000001 0.000000 0.420649 -0.879266 -3.679279 -97.395629 65.635345 92.333359 0.000004 28.079229 -0.000000 -32.174832 -0.927894 -4.091889 40.606591 -3.110609 26.124232 -37.849486 -44.265032 -46.874967 0.000000 -0.000003 0.000000 3.635331 -6.111001 61.464456 7.728600 -6.904450 96.464456 -0.000001 0.000002 -0.000001 3.635326 -6.111000 61.464449 7.728623 -6.904468 96.464428 0.000006 0.000003 -0.000002 3.635315 -6.110960 61.464449 7.728633 -6.904488 96.464442 0.000003 0.000003 0.000001 3.635338 -6.110996 61.464456 7.728617 -6.904472 96.464428 0.000003 -0.000000 0.000000 0.000000 -0.000000 -0.000000 0.000000 0.000001 -0.000000 0.000000 0.000000 -0.000000 0.000000 0.000001 -0.000000 0.000000 0.000001 -0.000000 0.000000 0.000001 -0.000000 0.000000 0.000000 -0.000000 0.000000 0.000001 -0.000000 0.000000 0.000001 -0.000000 0.000000 0.000001 -0.000000 0.000000 0.000000 -0.000000 0.000000 -0.000000 0.000000 0.000000 -0.000000 0.000000 0.000000 -0.000000 0.000000 
-0.238664 64.913994 0.845271 -1.577745 -16.921524 -1.996330 0.000000 -0.000001 -0.000000 -34.500689 18.779158 13.907927 49.801535 0.417022 8.680113 -16.560299 1.325330 -7.639617 -0.000000 -0.000000 -0.000000 -0.000000 0.000001 -0.000001 -28.997305 -23.184121 -12.732817 48.409150 -3.402365 -10.177545 -19.727767 -2.491367 11.821024 -0.000000 -0.000000 -0.000000 -0.000003 -0.000000 -0.000001 3.751918 2.324850 -0.415174 2.820242 2.007302 -0.173256 2.785800 2.062074 -0.196305 0.943599 0.291475 5.199659 -1.444415 7.647644 2.241820 -0.000000 0.000000 -0.000001 -0.000000 0.000000 -0.000001 -0.000000 0.000000 -0.000001 -0.000000 0.000000 -0.000001 -0.000000 0.000000 -0.000001 -0.000000 0.000000 -0.000001 -0.000000 0.000000 -0.000001 -0.000000 0.000000 -0.000001 -0.000000 0.000000 -0.000001 1.103783 -4.021746 21.257215 -66.219196 -44.416997 -66.594713 0.000006 -37.422231 0.000006 -66.480540 -13.342013 -9.321757 22.601021 -28.107321 -14.151483 29.406836 28.726505 -29.411785 0.000002 0.000003 0.000000 0.797672 3.221932 -27.804737 0.799596 3.225516 -27.838610 0.000001 0.000001 -0.000002 0.796775 3.220220 -27.788719 0.800516 3.227215 -27.854650 0.000002 -0.000000 0.000002 0.797678 3.221907 -27.804737 0.799582 3.225531 -27.838613 -0.000001 0.000001 -0.000001 2.684954 6.814120 -27.459493 0.809054 -0.835560 -28.291871 -0.000002 -0.000001 0.000001 -0.000001 0.000001 0.000001 0.410450 -0.920573 -3.746362 -97.673624 65.806571 92.793372 -0.000015 28.006433 0.000021 -32.526327 -0.855756 -4.208731 40.606595 -3.110606 26.124237 -37.849493 -44.265032 -46.874963 -0.000002 -0.000004 -0.000001 3.635328 -6.111004 61.464456 7.728602 -6.904458 96.464456 0.000001 0.000001 -0.000001 3.635324 -6.111002 61.464456 7.728626 -6.904467 96.464428 -0.000001 0.000001 -0.000001 3.635317 -6.110957 61.464449 7.728631 -6.904484 96.464449 0.000004 0.000001 0.000001 3.635335 -6.110995 61.464456 7.728621 -6.904471 96.464428 -0.000003 0.000002 0.000001 0.000000 0.000001 0.000001 0.000000 -0.000000 0.000000 0.000000 -0.000001 0.000000 0.000000 -0.000000 0.000000 0.000000 -0.000000 0.000000 0.000000 -0.000000 0.000000 0.000000 -0.000001 0.000000 0.000000 -0.000000 0.000000 0.000000 -0.000000 0.000000 0.000000 -0.000000 0.000000 0.000000 -0.000001 0.000000 0.000000 -0.000001 -0.000000 0.000000 -0.000001 -0.000000 0.000000 -0.000001 -0.000000 
